<svg xmlns="http://www.w3.org/2000/svg" width="12.117" height="18.51" viewBox="0 0 12.117 18.51"><defs><style>.a{fill:#02c8a7;}</style></defs><g transform="translate(-55.257)"><path class="a" d="M65.465,7.7V3.732A3.617,3.617,0,0,0,61.984,0H60.648a3.617,3.617,0,0,0-3.481,3.732V7.7a6.336,6.336,0,0,0-1.909,4.554,6.062,6.062,0,1,0,12.117,0A6.335,6.335,0,0,0,65.465,7.7Zm-7.142-.886V3.732a2.462,2.462,0,0,1,2.324-2.575h1.336a2.462,2.462,0,0,1,2.324,2.575V6.814q-.237-.139-.485-.255l-.018-.009-.07-.031-.1-.046-.049-.021-.156-.063h0a5.853,5.853,0,0,0-1.7-.376l-.041,0L61.545,6,61.5,6c-.061,0-.121,0-.182,0s-.122,0-.182,0l-.047,0-.143.007-.041,0a5.853,5.853,0,0,0-1.7.376h0l-.156.063L59,6.474l-.1.046-.07.031-.018.009Q58.561,6.676,58.323,6.814Zm2.992,10.539a5.009,5.009,0,0,1-4.9-5.1,5.139,5.139,0,0,1,2.5-4.446l.07-.04.077-.042c.045-.024.091-.048.137-.071l.044-.021a4.756,4.756,0,0,1,1.627-.457h.015q.1-.009.2-.014h.024c.068,0,.135,0,.2,0s.136,0,.2,0h.024q.1,0,.2.014h.015a4.756,4.756,0,0,1,1.627.457l.044.021c.046.023.092.047.137.071l.077.042.07.04a5.139,5.139,0,0,1,2.5,4.446A5.009,5.009,0,0,1,61.316,17.353Z"/><path class="a" d="M133.909,167.757A1.707,1.707,0,1,0,131.036,169l-.409,1.835a.579.579,0,0,0-.014.126c0,.5.491.879,1.142.879h.895c.651,0,1.142-.378,1.142-.879a.575.575,0,0,0-.014-.126L133.369,169A1.7,1.7,0,0,0,133.909,167.757Zm-2.063,2.931.356-1.6.356,1.6Zm.609-2.442a.252.252,0,1,1-.5,0,.55.55,0,1,1,.5,0Z" transform="translate(-70.887 -156.445)"/></g></svg>