<svg xmlns="http://www.w3.org/2000/svg" width="21.299" height="15.142" viewBox="0 0 21.299 15.142"><defs><style>.a{fill:#02c8a7;}</style></defs><g transform="translate(0 -4.482)"><g transform="translate(3.71 11.782)"><path class="a" d="M23.15,19.506a.34.34,0,0,1-.235-.093l-3.952-3.707a.343.343,0,1,1,.47-.5l3.952,3.707a.343.343,0,0,1-.236.593Z" transform="translate(-9.615 -15.111)"/><path class="a" d="M5.745,19.506a.343.343,0,0,1-.236-.593l3.953-3.707a.343.343,0,1,1,.47.5L5.98,19.413A.34.34,0,0,1,5.745,19.506Z" transform="translate(-5.402 -15.112)"/></g><path class="a" d="M19.582,19.624H1.717A1.719,1.719,0,0,1,0,17.907V6.2A1.719,1.719,0,0,1,1.717,4.482H19.582A1.719,1.719,0,0,1,21.3,6.2V17.907A1.719,1.719,0,0,1,19.582,19.624ZM1.717,5.169A1.031,1.031,0,0,0,.687,6.2V17.907a1.031,1.031,0,0,0,1.03,1.03H19.582a1.031,1.031,0,0,0,1.03-1.03V6.2a1.031,1.031,0,0,0-1.03-1.03Z" transform="translate(0 0)"/><path class="a" d="M10.856,14.028a1.921,1.921,0,0,1-1.261-.455L.776,5.881a.343.343,0,1,1,.451-.518l8.819,7.692a1.285,1.285,0,0,0,1.619,0l8.808-7.68a.344.344,0,0,1,.452.518l-8.808,7.68A1.919,1.919,0,0,1,10.856,14.028Z" transform="translate(-0.206 -0.25)"/></g></svg>